<svg xmlns="http://www.w3.org/2000/svg" width="1600" height="1000" viewBox="0 0 1600 1000">
  <rect width="100%" height="100%" fill="#e8efe8" />
  <rect x="36" y="32" width="1528" height="936" rx="36" fill="#ffffff" />
  <rect x="72" y="72" width="1456" height="132" rx="28" fill="#123524" />
  <text x="112" y="128" font-size="42" font-weight="700" fill="#f0fdf4">Findings preview</text>
  <text x="112" y="168" font-size="22" fill="#d1fae5">Representative artefact hotspots from the latest cached Google Drive inventory snapshot</text>
  <rect x="1230" y="108" width="252" height="42" rx="21" fill="#dcfce7" />
  <text x="1356" y="136" text-anchor="middle" font-size="18" font-weight="700" fill="#166534">TESTER BUILD</text>

  
    <g>
      <rect x="72" y="228" width="300" height="110" rx="24" fill="#ffffff" />
      <text x="98" y="268" font-size="20" fill="#64748b" font-weight="600">Total hidden artefacts</text>
      <text x="98" y="320" font-size="42" fill="#991b1b" font-weight="700">4938</text>
    </g>
    
  
    <g>
      <rect x="392" y="228" width="280" height="110" rx="24" fill="#ffffff" />
      <text x="418" y="268" font-size="20" fill="#64748b" font-weight="600">Total disk impact</text>
      <text x="418" y="320" font-size="42" fill="#7c2d12" font-weight="700">773 MB</text>
    </g>
    
  
    <g>
      <rect x="692" y="228" width="300" height="110" rx="24" fill="#ffffff" />
      <text x="718" y="268" font-size="20" fill="#64748b" font-weight="600">Largest hotspot</text>
      <text x="718" y="320" font-size="42" fill="#123524" font-weight="700">G Drive</text>
    </g>
    

  
            <g>
              <text x="92" y="332" font-size="28" font-weight="700" fill="#0f172a">G Drive</text>
              <rect x="92" y="354" width="540" height="22" rx="11" fill="#e2e8f0" />
              <rect x="92" y="354" width="520" height="22" rx="11" fill="#0f766e" />
              <text x="92" y="410" font-size="20" fill="#475569">3034 artefacts · 475 MB</text>
            </g>
            
            <g>
              <text x="92" y="450" font-size="28" font-weight="700" fill="#0f172a">Desktop</text>
              <rect x="92" y="472" width="540" height="22" rx="11" fill="#e2e8f0" />
              <rect x="92" y="472" width="177" height="22" rx="11" fill="#0f766e" />
              <text x="92" y="528" font-size="20" fill="#475569">1035 artefacts · 162 MB</text>
            </g>
            
            <g>
              <text x="92" y="568" font-size="28" font-weight="700" fill="#0f172a">Documents</text>
              <rect x="92" y="590" width="540" height="22" rx="11" fill="#e2e8f0" />
              <rect x="92" y="590" width="90" height="22" rx="11" fill="#0f766e" />
              <text x="92" y="646" font-size="20" fill="#475569">529 artefacts · 82.7 MB</text>
            </g>
            
            <g>
              <text x="92" y="686" font-size="28" font-weight="700" fill="#0f172a">Downloads</text>
              <rect x="92" y="708" width="540" height="22" rx="11" fill="#e2e8f0" />
              <rect x="92" y="708" width="58" height="22" rx="11" fill="#0f766e" />
              <text x="92" y="764" font-size="20" fill="#475569">340 artefacts · 53.1 MB</text>
            </g>
            

  <rect x="836" y="378" width="646" height="410" rx="30" fill="#f8fafc" />
  <text x="884" y="430" font-size="28" font-weight="700" fill="#0f172a">Sample matched paths</text>
  
            <g>
              <circle cx="934" cy="455" r="8" fill="#dc2626" />
              <text x="958" y="462" font-size="22" fill="#0f172a">Icon</text>
              <text x="958" y="492" font-size="18" fill="#64748b">Finder Icon carriage-return file · 1.46 MB</text>
            </g>
            
            <g>
              <circle cx="934" cy="539" r="8" fill="#dc2626" />
              <text x="958" y="546" font-size="22" fill="#0f172a">UpdraftPlus/Icon</text>
              <text x="958" y="576" font-size="18" fill="#64748b">Finder Icon carriage-return file · 160 KB</text>
            </g>
            
            <g>
              <circle cx="934" cy="623" r="8" fill="#dc2626" />
              <text x="958" y="630" font-size="22" fill="#0f172a">_Legend Files (Do not delete)/Icon</text>
              <text x="958" y="660" font-size="18" fill="#64748b">Finder Icon carriage-return file · 160 KB</text>
            </g>
            
            <g>
              <circle cx="934" cy="707" r="8" fill="#dc2626" />
              <text x="958" y="714" font-size="22" fill="#0f172a">_Legend Files (Do not…/Legend Backups/Icon</text>
              <text x="958" y="744" font-size="18" fill="#64748b">Finder Icon carriage-return file · 160 KB</text>
            </g>
            

  <rect x="836" y="808" width="310" height="92" rx="24" fill="#f8fafc" />
  <text x="868" y="844" font-size="18" fill="#64748b">Generated</text>
  <text x="868" y="878" font-size="24" font-weight="700" fill="#0f172a">2026-04-08 13:22:14 UTC</text>

  <rect x="1172" y="808" width="310" height="92" rx="24" fill="#fef3c7" />
  <text x="1327" y="862" text-anchor="middle" font-size="18" font-weight="700" fill="#92400e">Current release promise remains audit-first, not true live prevention.</text>
</svg>
