<svg xmlns="http://www.w3.org/2000/svg" width="1600" height="1000" viewBox="0 0 1600 1000">
  <rect width="100%" height="100%" fill="#f2efe8" />
  <rect x="36" y="32" width="1528" height="936" rx="36" fill="#fbfaf6" />
  <rect x="72" y="72" width="1456" height="132" rx="28" fill="#0f172a" />
  <text x="112" y="128" font-size="42" font-weight="700" fill="#f8fafc">Google Drive Icon Guard</text>
  <text x="112" y="168" font-size="22" fill="#cbd5e1">Audit-first macOS preview from the latest cached Drive scope inventory</text>
  <rect x="1162" y="106" width="320" height="46" rx="23" fill="#fef3c7" />
  <text x="1322" y="136" text-anchor="middle" font-size="18" font-weight="700" fill="#92400e">ACTIVE BETA · NO LIVE ES HOST YET</text>

  
    <g>
      <rect x="72" y="232" width="208" height="110" rx="24" fill="#ffffff" />
      <text x="98" y="272" font-size="20" fill="#64748b" font-weight="600">Detected scopes</text>
      <text x="98" y="324" font-size="42" fill="#0f172a" font-weight="700">4</text>
    </g>
    
  
    <g>
      <rect x="296" y="232" width="208" height="110" rx="24" fill="#ffffff" />
      <text x="322" y="272" font-size="20" fill="#64748b" font-weight="600">Supported</text>
      <text x="322" y="324" font-size="42" fill="#166534" font-weight="700">4</text>
    </g>
    
  
    <g>
      <rect x="520" y="232" width="208" height="110" rx="24" fill="#ffffff" />
      <text x="546" y="272" font-size="20" fill="#64748b" font-weight="600">Audit only</text>
      <text x="546" y="324" font-size="42" fill="#92400e" font-weight="700">0</text>
    </g>
    
  
    <g>
      <rect x="744" y="232" width="232" height="110" rx="24" fill="#ffffff" />
      <text x="770" y="272" font-size="20" fill="#64748b" font-weight="600">Matched artefacts</text>
      <text x="770" y="324" font-size="42" fill="#991b1b" font-weight="700">4938</text>
    </g>
    
  
    <g>
      <rect x="992" y="232" width="244" height="110" rx="24" fill="#ffffff" />
      <text x="1018" y="272" font-size="20" fill="#64748b" font-weight="600">Disk impact</text>
      <text x="1018" y="324" font-size="42" fill="#7c2d12" font-weight="700">773 MB</text>
    </g>
    
  
    <g>
      <rect x="1252" y="232" width="276" height="110" rx="24" fill="#ffffff" />
      <text x="1278" y="272" font-size="20" fill="#64748b" font-weight="600">Warnings</text>
      <text x="1278" y="324" font-size="42" fill="#7c3aed" font-weight="700">2</text>
    </g>
    

  <text x="72" y="360" font-size="28" font-weight="700" fill="#0f172a">Latest scope review</text>
  
            <g>
              <rect x="72" y="378" width="920" height="104" rx="20" fill="#f8fafc" />
              <text x="104" y="414" font-size="28" font-weight="700" fill="#0f172a">Desktop</text>
              <text x="104" y="450" font-size="20" fill="#64748b">/Users/richard/Desktop</text>
              <rect x="704" y="398" width="108" height="34" rx="17" fill="#e2e8f0" />
              <text x="758" y="421" text-anchor="middle" font-size="16" font-weight="700" fill="#334155">BACKUP</text>
              <rect x="830" y="398" width="130" height="34" rx="17" fill="#dcfce7" />
              <text x="895" y="421" text-anchor="middle" font-size="16" font-weight="700" fill="#166534">Supported</text>
              <text x="704" y="460" font-size="18" fill="#64748b">Artefacts</text>
              <text x="808" y="460" font-size="24" font-weight="700" fill="#0f172a">1035</text>
              <text x="864" y="460" font-size="18" fill="#64748b">Impact</text>
              <text x="936" y="460" font-size="24" font-weight="700" fill="#0f172a">162 MB</text>
            </g>
            
            <g>
              <rect x="72" y="500" width="920" height="104" rx="20" fill="#f8fafc" />
              <text x="104" y="536" font-size="28" font-weight="700" fill="#0f172a">Documents</text>
              <text x="104" y="572" font-size="20" fill="#64748b">/Users/richard/Documents</text>
              <rect x="704" y="520" width="108" height="34" rx="17" fill="#e2e8f0" />
              <text x="758" y="543" text-anchor="middle" font-size="16" font-weight="700" fill="#334155">BACKUP</text>
              <rect x="830" y="520" width="130" height="34" rx="17" fill="#dcfce7" />
              <text x="895" y="543" text-anchor="middle" font-size="16" font-weight="700" fill="#166534">Supported</text>
              <text x="704" y="582" font-size="18" fill="#64748b">Artefacts</text>
              <text x="808" y="582" font-size="24" font-weight="700" fill="#0f172a">529</text>
              <text x="864" y="582" font-size="18" fill="#64748b">Impact</text>
              <text x="936" y="582" font-size="24" font-weight="700" fill="#0f172a">82.7 MB</text>
            </g>
            
            <g>
              <rect x="72" y="622" width="920" height="104" rx="20" fill="#f8fafc" />
              <text x="104" y="658" font-size="28" font-weight="700" fill="#0f172a">Downloads</text>
              <text x="104" y="694" font-size="20" fill="#64748b">/Users/richard/Downloads</text>
              <rect x="704" y="642" width="108" height="34" rx="17" fill="#e2e8f0" />
              <text x="758" y="665" text-anchor="middle" font-size="16" font-weight="700" fill="#334155">BACKUP</text>
              <rect x="830" y="642" width="130" height="34" rx="17" fill="#dcfce7" />
              <text x="895" y="665" text-anchor="middle" font-size="16" font-weight="700" fill="#166534">Supported</text>
              <text x="704" y="704" font-size="18" fill="#64748b">Artefacts</text>
              <text x="808" y="704" font-size="24" font-weight="700" fill="#0f172a">340</text>
              <text x="864" y="704" font-size="18" fill="#64748b">Impact</text>
              <text x="936" y="704" font-size="24" font-weight="700" fill="#0f172a">53.1 MB</text>
            </g>
            
            <g>
              <rect x="72" y="744" width="920" height="104" rx="20" fill="#f8fafc" />
              <text x="104" y="780" font-size="28" font-weight="700" fill="#0f172a">G Drive</text>
              <text x="104" y="816" font-size="20" fill="#64748b">/Volumes/Sync/G Drive</text>
              <rect x="704" y="764" width="108" height="34" rx="17" fill="#e2e8f0" />
              <text x="758" y="787" text-anchor="middle" font-size="16" font-weight="700" fill="#334155">MIRROR</text>
              <rect x="830" y="764" width="130" height="34" rx="17" fill="#dcfce7" />
              <text x="895" y="787" text-anchor="middle" font-size="16" font-weight="700" fill="#166534">Supported</text>
              <text x="704" y="826" font-size="18" fill="#64748b">Artefacts</text>
              <text x="808" y="826" font-size="24" font-weight="700" fill="#0f172a">3034</text>
              <text x="864" y="826" font-size="18" fill="#64748b">Impact</text>
              <text x="936" y="826" font-size="24" font-weight="700" fill="#0f172a">475 MB</text>
            </g>
            

  <rect x="1032" y="378" width="496" height="458" rx="28" fill="#0f172a" />
  <text x="1070" y="428" font-size="28" font-weight="700" fill="#f8fafc">Tester notes</text>
  <text x="1070" y="464" font-size="20" fill="#cbd5e1">Generated from the repo's cached inventory snapshot</text>

  <rect x="1070" y="496" width="420" height="76" rx="22" fill="#111827" stroke="#334155" />
  <text x="1100" y="528" font-size="18" fill="#94a3b8">Current runtime lane</text>
  <text x="1100" y="560" font-size="24" font-weight="700" fill="#f8fafc">LaunchAgent helper path only</text>

  <rect x="1070" y="592" width="420" height="76" rx="22" fill="#111827" stroke="#334155" />
  <text x="1100" y="624" font-size="18" fill="#94a3b8">What testers should validate</text>
  <text x="1100" y="656" font-size="24" font-weight="700" fill="#f8fafc">Discovery, findings, export, packaging</text>

  <rect x="1070" y="688" width="420" height="102" rx="22" fill="#1e293b" />
  <text x="1100" y="722" font-size="18" fill="#fbbf24">Known release warning</text>
  <text x="1100" y="756" font-size="20" font-weight="700" fill="#f8fafc">Discovery currently relies on …ings parsing is still pending.</text>
  <text x="1100" y="782" font-size="16" fill="#cbd5e1">Helper lifecycle is testable. Endpoint Security host entitlement is still pending.</text>

  <text x="1070" y="872" font-size="18" fill="#64748b">Snapshot generated</text>
  <text x="1070" y="902" font-size="22" font-weight="700" fill="#0f172a">2026-04-08 13:22:14 UTC</text>
</svg>
